<?xml version="1.0" encoding="UTF-8"?>
<svg id="Layer_2" data-name="Layer 2" xmlns="http://www.w3.org/2000/svg" viewBox="0 0 412.6 206.28">
  <defs>
    <style>
      .cls-1 {
        opacity: .8;
      }

      .cls-1, .cls-2, .cls-3, .cls-4, .cls-5, .cls-6, .cls-7 {
        stroke-width: 0px;
      }

      .cls-1, .cls-2, .cls-4, .cls-5, .cls-6, .cls-7 {
        fill: #08b594;
      }

      .cls-1, .cls-2, .cls-4, .cls-6, .cls-7 {
        isolation: isolate;
      }

      .cls-2 {
        opacity: .6;
      }

      .cls-3 {
        fill: #083f34;
      }

      .cls-4 {
        opacity: .5;
      }

      .cls-6 {
        opacity: .7;
      }

      .cls-7 {
        opacity: .4;
      }
    </style>
  </defs>
  <g id="Layer_1-2" data-name="Layer 1">
    <g id="Layer_1-2" data-name="Layer 1-2">
      <g>
        <g>
          <g>
            <path class="cls-3" d="M29.52,147.69v-40.76c0-16.03,11.54-27.12,28.17-27.12h19.78v17.83h-20.38c-6.59,0-9.74,3.6-9.74,10.94v21.28h29.67v20.68c0,17.08-9.74,26.52-27.27,26.52h-22.48c-17.53,0-27.27-9.44-27.27-26.52v-46.6h17.83v48.85c.75,5.09,2.25,6.14,7.79,6.14h25.92c5.1,0,7.64-2.1,7.64-6.14v-5.09h-29.67,0ZM17.38,188.3h17.83v17.98h-17.83v-17.98ZM42.71,188.3h17.83v17.98h-17.83v-17.98Z"/>
            <path class="cls-3" d="M87.97,159.53h2.25c8.84,0,13.19-4.2,13.19-12.29v-67.43h17.83v63.98c0,2.4,0,4.5-.15,6.14-.6,6.74-2.25,12.29-5.24,16.48-4.35,5.84-10.04,9.29-17.08,10.19-2.1.15-4.95.45-8.39.45h-2.4v-17.53h0Z"/>
            <path class="cls-3" d="M174.13,129.86v-10.79c0-7.34-1.8-12.59-5.54-15.73-2.4-2.1-4.94-3.45-7.79-4.34-2.7-.9-7.19-1.35-13.64-1.5v-17.83h5.84c9.59,0,17.68,2.4,24.42,7.19,9.74,6.74,14.68,17.38,14.68,32.07v28.77h-57.39v-17.83h39.41Z"/>
          </g>
          <g>
            <path class="cls-2" d="M214.86,164.13c45.14-34.04,92.58-63.4,150.43-73.16-1.37-1.25-1.84-1.83-2.43-2.2-13.23-8.18-27.43-14.31-42.05-19.51-1.21-.43-3.09.1-4.33.79-22.13,12.14-41.78,27.65-59.31,45.67-14.16,14.55-27.39,30.01-41.01,45.08-.73.81-1.28,1.79-1.92,2.68.21.21.42.43.62.65h0Z"/>
            <path class="cls-1" d="M205.93,157.09c.89-1.6,1.81-3.19,2.66-4.81,16.04-30.54,33.26-60.34,55.03-87.27,10.64-13.16,22.67-24.9,35.95-35.38.84-.66,1.46-1.6,2.18-2.41-.96-.66-1.83-1.59-2.89-1.94-12.1-3.95-24.65-4.79-37.25-4.86-1.26,0-2.88,1.57-3.76,2.81-9.66,13.61-17.08,28.45-23.5,43.79-11.2,26.74-19.82,54.35-27.29,82.34-.66,2.45-1.3,4.91-1.95,7.36.27.12.54.23.81.35h0Z"/>
            <path class="cls-7" d="M230.9,167.68c60.27-12.19,120.45-18.36,181.33-5.11.12-.39.25-.77.37-1.16-.8-1.12-1.51-2.32-2.42-3.35-9.17-10.27-19.36-19.39-31.08-26.65-2.04-1.26-4.83-1.99-7.22-1.9-20.05.79-39.72,4.13-59.18,8.94-26.99,6.66-52.94,16.26-78.35,27.41-1.18.52-2.29,1.21-3.43,1.82h0Z"/>
            <path class="cls-6" d="M331.56,54.74c-3.26-1.58-6.4-3.48-9.79-4.68-7.92-2.81-15.95-5.3-23.95-7.89-2.87-.93-5.17-.48-7.61,1.77-20.01,18.43-36.08,40.02-50.27,63-10.3,16.69-19.58,34.01-29.3,51.05-.31.55-.45,1.19-.34,2.09,34.83-41.19,71.66-79.98,121.35-103.83-.03-.5-.05-1.01-.08-1.51h0Z"/>
            <path class="cls-4" d="M390.14,123c-4.34-2.9-8.55-6-13.04-8.65-7.63-4.51-15.49-8.62-23.12-13.12-3.85-2.28-7.48-1.93-11.55-.76-28.98,8.3-55.46,21.95-80.86,37.8-12.94,8.08-25.43,16.89-38.1,25.4-1.07.72-1.98,1.67-2.78,2.92,53.64-25.03,108.99-42.99,169.07-42.21.12-.46.25-.92.37-1.37h0Z"/>
            <path class="cls-5" d="M259.36.87c-1.27-.6-2.55-.7-3.39-.81-12.72-.51-25.02,2.11-37.16,5.47-1.22.34-2.34,2.29-2.85,3.73-5.58,15.73-8.68,32.03-10.68,48.54-3.49,28.78-4.27,57.69-3.83,86.66.04,2.54.09,5.08.13,7.62.29.04.58.08.88.12.42-1.78.88-3.56,1.25-5.35,7.12-33.76,15.56-67.12,29.18-98.96,6.65-15.56,15.04-30.13,24.96-43.83.42-.58,1.26-1.69,1.78-2.37.22-.29.07-.66-.26-.81h0ZM239,27.72h-18.39v-5.49h3.11c-.48-1.07-.72-2.03-.72-3.11,0-5.61,4.06-9.55,9.55-9.55h4.06v5.49h-4.78c-2.27,0-3.46,1.31-3.46,3.94,0,2.15,1.31,3.22,3.82,3.22h6.81v5.49h0Z"/>
          </g>
        </g>
        <g>
          <path class="cls-3" d="M139.25,153.03h7.26l4.24,18.84h-3.82l-.75-3.41h-6.59l-.75,3.41h-3.82l4.24-18.84h0ZM145.45,165.13l-1.91-8.95h-1.33l-1.91,8.95h5.15,0Z"/>
          <path class="cls-3" d="M153.27,153.03h6.34c6.57,0,8.01,2.8,8.01,9.06s-1.24,9.78-8.01,9.78h-6.34v-18.84h0ZM159.61,168.54c3.71,0,4.07-2.27,4.07-6.46s-.36-5.74-4.07-5.74h-2.52v12.19h2.52Z"/>
          <path class="cls-3" d="M170.95,153.03h7.32c4.29,0,6.65,1.91,6.65,6.21,0,2.6-1.05,4.35-2.77,5.43l2.69,7.2h-4.18l-2.19-6.32h-3.69v6.32h-3.82v-18.84h0ZM178.32,162.28c1.91,0,2.69-1.33,2.69-2.99,0-1.8-.91-2.99-2.74-2.99h-3.49v5.99h3.55Z"/>
          <path class="cls-3" d="M188.13,153.03h3.82v18.84h-3.82v-18.84Z"/>
        </g>
      </g>
    </g>
  </g>
</svg>