<svg id="&#x421;&#x43B;&#x43E;&#x439;_1" enable-background="new 0 0 512 512" height="512" viewBox="0 0 512 512" width="512" xmlns="http://www.w3.org/2000/svg"><path id="Linkedin_1_" d="m125.016 62.969c0 34.797-27.983 62.985-62.517 62.985-34.499 0-62.499-28.188-62.499-62.985 0-34.766 28-62.969 62.499-62.969 34.533 0 62.517 28.203 62.517 62.969zm-9.142 107.672h-105.718v341.359h105.718zm168.97 0h-101.376v341.359h101.376s0-126.609 0-179.188c0-48 22.107-76.563 64.404-76.563 38.875 0 57.563 27.422 57.563 76.563v179.188h105.189s0-124.719 0-216.125c0-91.468-51.846-135.641-124.252-135.641-72.422 0-102.904 56.407-102.904 56.407z"/></svg>